<?xml version="1.0" encoding="UTF-8" standalone="no"?>
<!-- Created with Inkscape (http://www.inkscape.org/) -->

<svg
   width="50"
   height="65"
   viewBox="0 0 13.229166 17.197917"
   version="1.1"
   id="svg1"
   xmlns="http://www.w3.org/2000/svg"
   xmlns:svg="http://www.w3.org/2000/svg">
  <defs
     id="defs1" />
  <path
     id="path2"
     style="color:#000000;fill:#000000;fill-opacity:1;stroke-width:0.26527;stroke-linecap:round;-inkscape-stroke:none"
     d="m 9.8417906,13.081018 -0.2015374,0.995799 c -0.1206111,0.595105 0.7897008,0.779133 0.9097958,0.183924 L 10.751585,13.26546 C 10.872006,12.67073 9.9625746,12.486394 9.8417906,13.081018 Z m -2.4182082,-2.53602 c -0.6688595,1.513175 2.1515789,3.266726 3.0267796,3.045425 1.100055,-0.278173 2.145223,-2.776407 0.915481,-3.7422803 C 10.4401,9.1210226 7.8951741,9.4781157 7.4235824,10.544998 Z m 2.9247006,-0.1285 c 1.191452,0.315825 0.474214,1.698904 -0.125973,2.273967 -0.7167967,-0.102079 -2.1525941,-1.311203 -1.9496218,-1.770367 0.1340135,-0.30324 1.2755371,-0.585213 2.0755368,-0.50366 z M 6.441853,4.1897037 C 6.1395235,4.5473216 6.3198569,4.9688572 6.3997227,5.1167485 6.5936874,5.4759475 6.9040784,5.513996 7.095786,5.3305619 7.2768838,5.1572884 7.4485399,4.6520444 7.1769382,4.2380849 6.8755959,3.7787753 6.6126206,4.0274835 6.441854,4.1897034 Z M 3.0583747,0.62399748 c -0.4487554,0.008045 -1.283447,0.34676799 -1.7233922,1.07267292 -0.8572621,1.4145058 -1.40875486,3.8636728 -1.1009083,5.346713 0.50275941,2.422127 2.7399,1.7469405 3.256233,1.5366932 C 5.0775774,7.9337527 4.4965729,6.27935 2.8970126,4.2740514 2.5185982,3.7995399 1.7928599,4.3782178 2.1711599,4.8528117 2.7971344,5.6375634 3.1658432,6.240714 3.3456878,6.6718915 3.9528249,8.1275835 1.6724396,8.587612 1.3127483,6.8547619 1.139489,6.0197341 1.2221241,5.5280575 1.4842744,4.1519726 1.592825,3.4988043 2.3743327,0.66349412 3.7474948,1.9388613 4.0061026,2.1390404 4.8165492,3.4957726 5.1253342,4.1097307 5.2591561,3.7669787 5.4250264,3.4371553 5.6252794,3.1284964 4.9410282,1.9916925 4.1395345,0.60477619 3.0582789,0.62400511 Z M 4.5401694,3.8708701 C 4.3493797,3.8609475 4.1892962,3.9716173 4.0743283,4.1076088 3.9593614,4.2436004 3.880045,4.4115657 3.8643189,4.579177 3.843547,4.8011066 3.9031844,5.0599983 4.0208717,5.2779379 4.138559,5.4958777 4.3313888,5.6887839 4.589808,5.6788664 4.7066478,5.6743895 4.8107106,5.6207432 4.887641,5.5471328 4.9645704,5.473522 5.0191971,5.3810087 5.0613763,5.2817564 5.1457347,5.0832519 5.1794643,4.8565684 5.1644724,4.6689087 5.1511881,4.5033726 5.0894394,4.3240061 4.9888271,4.1706119 4.8882148,4.0172177 4.7386209,3.8812281 4.5401694,3.8708701 Z M 8.2987064,1.6500013 C 7.7678233,1.6456025 7.1621603,1.8556252 6.6115013,2.2494627 5.9982569,2.6880645 5.4915923,3.4947752 5.2125772,4.2711494 5.2935632,4.4618309 5.327637,4.6758937 5.3094476,4.8674577 5.2960461,5.0759514 5.2359297,5.3086843 5.118,5.4930996 c 0.125781,0.8637965 0.6943986,1.7579182 1.9127108,2.4192267 1.0524819,0.5713015 2.0627103,1.0164412 2.8950267,1.4164702 0.6266065,0.00575 1.3249865,0.1182952 1.7473965,0.6229002 0.329996,0.3977923 0.421815,0.9117393 0.375332,1.4163333 0.03771,0.171115 0.06739,0.350837 0.08654,0.534209 0.07179,0.689009 0.01723,1.420947 -0.105678,1.817023 -0.17862,0.577507 -0.609569,1.026688 -1.206041,1.334633 C 10.226814,15.361842 9.7084663,15.36714 8.9184024,15.34917 7.338266,15.313237 5.8186957,14.743491 4.9837177,13.203786 4.4942239,12.346737 4.585897,11.404417 4.8808131,10.516835 5.0782059,9.6745314 4.0853027,9.416827 3.7595904,9.9232777 3.0115279,11.459826 3.4517331,13.029923 3.7758754,13.627548 c 1.0152068,1.872023 3.0403732,2.757614 4.9271431,2.788937 1.8867895,0.03132 3.6915615,-0.795849 4.1966375,-2.427865 0.167134,-0.539883 0.229201,-1.362651 0.139948,-2.187967 -0.08922,-0.825314 -0.323929,-1.653411 -0.84566,-2.160961 l -0.0038,-0.00364 C 11.205772,8.7240608 9.4015159,8.1629424 7.4650851,7.1118226 6.6643949,6.677199 6.253683,6.1701798 6.0842526,5.6636871 5.9148212,5.1571943 5.9829766,4.6344266 6.2012263,4.1544129 6.4195151,3.6744009 6.7908651,3.2446037 7.2006768,2.9550819 7.6105081,2.6655601 7.9924287,2.6779317 8.340996,2.723456 8.8965376,2.796015 9.4444556,3.3624078 9.7863037,4.1060599 9.9572658,4.4778867 10.043404,4.8562016 10.020022,5.1407556 9.9967091,5.4244092 9.8976871,5.5992046 9.6526548,5.6997757 9.0437875,6.0428767 8.1673008,5.8463682 8.2573923,4.3115073 8.2897378,3.9285082 7.7895062,3.857822 7.7017099,4.1579398 7.3568513,5.3367822 7.9680303,7.3872848 10.183995,6.5190861 10.711719,6.3245814 11.181586,5.8069198 11.270457,5.3198723 11.359478,4.8324668 11.260877,4.2874798 11.046062,3.763031 10.618177,2.7141355 9.5670754,1.801654 8.5207781,1.6650066 8.4484137,1.6556226 8.3741294,1.6504565 8.2982978,1.6498827 Z" />
</svg>
