<svg xmlns="http://www.w3.org/2000/svg" xmlns:xlink="http://www.w3.org/1999/xlink" width="50" zoomAndPan="magnify" viewBox="0 0 37.5 37.499999" height="50" preserveAspectRatio="xMidYMid meet" version="1.0"><defs><clipPath id="d7e5e3167f"><path d="M 4.375 1 L 32.5 1 L 32.5 36 L 4.375 36 Z M 4.375 1 " clip-rule="nonzero"/></clipPath></defs><g clip-path="url(#d7e5e3167f)"><path fill="#000000" d="M 25.296875 28.074219 L 24.867188 30.203125 C 24.613281 31.472656 26.546875 31.867188 26.804688 30.59375 L 27.230469 28.46875 C 27.488281 27.199219 25.554688 26.804688 25.296875 28.074219 Z M 20.15625 22.660156 C 18.734375 25.890625 24.730469 29.636719 26.589844 29.164062 C 28.929688 28.570312 31.152344 23.234375 28.539062 21.171875 C 26.570312 19.617188 21.160156 20.378906 20.15625 22.660156 Z M 26.375 22.386719 C 28.90625 23.058594 27.382812 26.011719 26.105469 27.242188 C 24.582031 27.023438 21.53125 24.441406 21.960938 23.460938 C 22.246094 22.8125 24.671875 22.210938 26.375 22.382812 Z M 18.070312 9.085938 C 17.425781 9.851562 17.808594 10.75 17.980469 11.066406 C 18.390625 11.832031 19.050781 11.914062 19.460938 11.523438 C 19.84375 11.152344 20.210938 10.074219 19.632812 9.191406 C 18.992188 8.210938 18.433594 8.742188 18.070312 9.085938 Z M 10.875 1.472656 C 9.921875 1.488281 8.148438 2.210938 7.210938 3.761719 C 5.390625 6.785156 4.214844 12.015625 4.871094 15.179688 C 5.941406 20.355469 10.695312 18.910156 11.792969 18.460938 C 15.167969 17.082031 13.933594 13.550781 10.53125 9.265625 C 9.726562 8.253906 8.183594 9.488281 8.988281 10.503906 C 10.320312 12.179688 11.105469 13.46875 11.488281 14.386719 C 12.777344 17.496094 7.929688 18.480469 7.164062 14.777344 C 6.796875 12.996094 6.972656 11.945312 7.527344 9.007812 C 7.761719 7.609375 9.421875 1.554688 12.339844 4.28125 C 12.890625 4.707031 14.613281 7.605469 15.269531 8.914062 C 15.554688 8.183594 15.90625 7.480469 16.332031 6.820312 C 14.878906 4.390625 13.175781 1.429688 10.875 1.472656 Z M 14.027344 8.40625 C 13.621094 8.382812 13.28125 8.621094 13.035156 8.910156 C 12.792969 9.203125 12.621094 9.558594 12.589844 9.917969 C 12.546875 10.390625 12.671875 10.945312 12.921875 11.410156 C 13.171875 11.875 13.582031 12.289062 14.132812 12.265625 C 14.378906 12.257812 14.601562 12.144531 14.765625 11.984375 C 14.929688 11.828125 15.042969 11.628906 15.132812 11.417969 C 15.3125 10.996094 15.386719 10.511719 15.351562 10.109375 C 15.324219 9.757812 15.195312 9.375 14.980469 9.046875 C 14.765625 8.71875 14.449219 8.429688 14.027344 8.40625 Z M 22.015625 3.664062 C 20.886719 3.652344 19.601562 4.101562 18.429688 4.941406 C 17.125 5.878906 16.046875 7.601562 15.457031 9.261719 C 15.628906 9.667969 15.699219 10.125 15.660156 10.535156 C 15.632812 10.980469 15.503906 11.476562 15.253906 11.871094 C 15.523438 13.714844 16.730469 15.625 19.320312 17.035156 C 21.558594 18.257812 23.707031 19.207031 25.476562 20.0625 C 26.808594 20.074219 28.292969 20.316406 29.191406 21.390625 C 29.890625 22.242188 30.085938 23.339844 29.988281 24.417969 C 30.070312 24.78125 30.132812 25.167969 30.171875 25.558594 C 30.324219 27.027344 30.210938 28.59375 29.949219 29.4375 C 29.566406 30.671875 28.652344 31.632812 27.382812 32.289062 C 26.117188 32.945312 25.015625 32.957031 23.335938 32.917969 C 19.976562 32.84375 16.742188 31.625 14.96875 28.335938 C 13.929688 26.507812 14.125 24.496094 14.75 22.597656 C 15.167969 20.800781 13.058594 20.25 12.367188 21.332031 C 10.777344 24.613281 11.710938 27.964844 12.402344 29.242188 C 14.558594 33.242188 18.863281 35.132812 22.875 35.199219 C 26.886719 35.265625 30.722656 33.5 31.796875 30.011719 C 32.152344 28.859375 32.285156 27.101562 32.097656 25.339844 C 31.90625 23.578125 31.40625 21.808594 30.296875 20.726562 L 30.289062 20.71875 C 28.195312 18.769531 24.359375 17.570312 20.246094 15.328125 C 18.542969 14.398438 17.667969 13.316406 17.308594 12.234375 C 16.949219 11.152344 17.09375 10.035156 17.558594 9.011719 C 18.019531 7.984375 18.8125 7.066406 19.683594 6.449219 C 20.554688 5.832031 21.367188 5.859375 22.105469 5.957031 C 23.289062 6.109375 24.453125 7.320312 25.179688 8.90625 C 25.542969 9.703125 25.726562 10.511719 25.675781 11.117188 C 25.625 11.722656 25.417969 12.097656 24.894531 12.3125 C 23.601562 13.042969 21.738281 12.625 21.929688 9.347656 C 21.996094 8.527344 20.933594 8.378906 20.746094 9.019531 C 20.015625 11.535156 21.3125 15.914062 26.023438 14.0625 C 27.148438 13.644531 28.144531 12.539062 28.335938 11.5 C 28.523438 10.460938 28.3125 9.296875 27.859375 8.175781 C 26.949219 5.933594 24.714844 3.988281 22.488281 3.695312 C 22.335938 3.675781 22.175781 3.664062 22.015625 3.664062 Z M 22.015625 3.664062 " fill-opacity="1" fill-rule="nonzero"/></g></svg>